<?xml version="1.0" encoding="utf-8"?>
<!-- Generator: Adobe Illustrator 23.0.4, SVG Export Plug-In . SVG Version: 6.00 Build 0)  -->
<svg version="1.1" id="Capa_1" xmlns="http://www.w3.org/2000/svg" xmlns:xlink="http://www.w3.org/1999/xlink" x="0px" y="0px"
	 viewBox="0 0 600 600" style="enable-background:new 0 0 600 600;" xml:space="preserve">
<style type="text/css">
	.st0{fill:#F6F9FC;}
	.st1{fill:#241C1B;}
	.st2{fill:#E1BBA6;}
	.st3{fill:#F0D7C9;}
	.st4{fill:#D2A186;}
	.st5{fill:none;stroke:#B3724E;stroke-width:1.5;}
	.st6{fill:url(#SvgjsPath4956_1_);}
	.st7{fill:#152C5E;}
	.st8{fill:#233B6D;}
	.st9{fill:#0A1F4F;}
	.st10{fill:#01153F;}
	.st11{fill:#000F30;}
	.st12{fill:#E1BBA6;stroke:#B3724E;stroke-width:1.5;}
	.st13{fill:#B3724E;}
	.st14{fill:#D9AE95;}
	.st15{fill:url(#SvgjsPath4317_1_);}
	.st16{fill:#282D20;}
	.st17{opacity:0.7;fill:url(#SvgjsPath4672_1_);enable-background:new    ;}
	.st18{opacity:0.4;fill:url(#SvgjsPath4676_1_);enable-background:new    ;}
	.st19{opacity:0.9;enable-background:new    ;}
	.st20{opacity:0.5;fill:url(#SvgjsPath4682_1_);enable-background:new    ;}
	.st21{opacity:0.5;fill:url(#SvgjsPath4686_1_);enable-background:new    ;}
	.st22{opacity:0.75;fill:url(#SvgjsPath4690_1_);enable-background:new    ;}
	.st23{fill:url(#SvgjsPath4343_1_);}
	.st24{fill:url(#SvgjsPath4348_1_);}
	.st25{fill:url(#SvgjsPath4325_1_);}
	.st26{opacity:0.7;fill:url(#SvgjsPath4695_1_);enable-background:new    ;}
	.st27{opacity:0.4;fill:url(#SvgjsPath4699_1_);enable-background:new    ;}
	.st28{opacity:0.5;fill:url(#SvgjsPath4705_1_);enable-background:new    ;}
	.st29{opacity:0.5;fill:url(#SvgjsPath4709_1_);enable-background:new    ;}
	.st30{opacity:0.75;fill:url(#SvgjsPath4713_1_);enable-background:new    ;}
	.st31{fill:url(#SvgjsPath4364_1_);}
	.st32{fill:url(#SvgjsPath4369_1_);}
	.st33{fill:url(#SvgjsPath2906_1_);}
	.st34{fill:url(#SvgjsPath2910_1_);}
	.st35{fill:#2A232B;}
	.st36{fill:#050303;}
	.st37{fill:#150E0D;}
	.st38{fill:#332C2C;}
	.st39{fill:#26120B;}
	.st40{display:none;opacity:0.5;fill:#ECF0F1;enable-background:new    ;}
</style>
<g id="svga-group-wrapper">
	<g id="svga-group-backs-single">
		<path id="SvgjsPath5047" class="st0" d="M600,600H0V0h600V600z"/>
	</g>
	<g id="svga-group-humanwrap-move" transform="matrix(1,0,0,1,0,-2)">
		
			<g id="svga-group-humanwrap" transform="matrix(0.8499995000000001,0,0,0.8499995000000001,14.979301542071454,16.340511240039817)">
			
				<g id="svga-group-hair-back-move" transform="matrix(0.9999999999999998,1.7453294018365817e-9,-1.7453294018365817e-9,0.9999999999999998,2.617994425690995e-7,-1.7453291434321727e-7)">
				<g id="svga-group-hair-back" transform="matrix(1,0,0,1,0,0)">
					<path id="SvgjsPath3739" class="st1" d="M346.2,325.1h-2.7v-2.7h2.7V325.1z"/>
				</g>
			</g>
			<g id="svga-group-humanbody-single">
				<path id="SvgjsPath2914" class="st2" d="M599.4,589.9c-5.9-12.7-21.9-31.4-39.6-36.6c-22-6.4-71.6-14.2-90-18.5
					c-14.7-3.5-44.4-30.1-54.9-39.1c-1.9-1.6-3.4-4.9-3.4-7.4c-0.4-29,11.2-106,11.2-106h-77.8H267c0,0,11.6,77,11.2,106
					c0,2.5-1.6,5.8-3.4,7.4c-10.4,9-40.1,35.6-54.9,39.1c-18.4,4.3-68,12.3-90,18.7c-17.8,5.2-33.8,23.7-39.6,36.3
					c-9.9,21.4-12.2,60-12.2,93.4h266.8h266.8C611.6,649.9,609.3,611.2,599.4,589.9z"/>
				<path id="SvgjsPath2915" class="st3" d="M502.6,547.9c64.9,9.4,92.3,23.2,100.8,135.3h8.1c0-33.3-2.3-72-12.2-93.4
					c-5.9-12.7-21.9-31.4-39.6-36.6c-22-6.4-71.6-14.2-90-18.5c-14.7-3.5-48.7-32.2-57.7-43.6c9,12.5,34.1,41.6,56.2,49.2
					C478.7,544.1,487.5,545.7,502.6,547.9z M221.5,540.4c22-7.6,47.2-36.7,56.2-49.2c-9.1,11.4-43,40.2-57.7,43.6
					c-18.4,4.3-68,12.3-90,18.7c-17.8,5.2-33.8,23.7-39.6,36.3c-9.9,21.4-12.2,60-12.2,93.4h8.1c8.5-111.4,35.9-125.9,100.8-135.3
					C202.2,545.7,211,544.1,221.5,540.4z"/>
				<path id="SvgjsPath2916" class="st4" d="M333.2,584.1c0,0-13.5-4.3-18.9-6.3c-27.9-10.7-118.4-17.6-118.4-17.6
					s95.4,3.8,116.4,7.4c-1.2-12.7-8-53.4-8-53.4s13.7,44.9,17.1,56.2C323.2,576.4,333.2,584.1,333.2,584.1z M362,580.5
					c-0.2,0.2-0.5,0.4-0.8,0.7C361.5,581,361.8,580.8,362,580.5z M333.2,584.1c0,0,7.7,8,11.6,8.1c5.1,0.1,12.9-7.7,16.4-10.9
					c-3.4,2.6-11.1,3.7-14.2,3.8C343.5,585.2,333.2,584.1,333.2,584.1z M389.3,564.1c-4.1,0.7-11.7,2.1-11.7,2.1l6.1-39.7
					c-1.7,8.2-11.9,43.2-21.7,54.1c5.1-4.3,16.4-6.4,22.2-7.2c27.3-4,27.3-4,109.5-13.2C493.8,560.2,416.2,559.7,389.3,564.1z"/>
				<path id="SvgjsPath2917" class="st5" d="M599.4,589.9c-5.9-12.7-21.9-31.4-39.6-36.6c-22-6.4-71.6-14.2-90-18.5
					c-14.7-3.5-44.4-30.1-54.9-39.1c-1.9-1.6-3.4-4.9-3.4-7.4c-0.4-29,11.2-106,11.2-106h-77.8H267c0,0,11.6,77,11.2,106
					c0,2.5-1.6,5.8-3.4,7.4c-10.4,9-40.1,35.6-54.9,39.1c-18.4,4.3-68,12.3-90,18.7c-17.8,5.2-33.8,23.7-39.6,36.3
					c-9.9,21.4-12.2,60-12.2,93.4h266.8h266.8C611.6,649.9,609.3,611.2,599.4,589.9z"/>
			</g>
			<g id="svga-group-chinshadow-single">
				
					<linearGradient id="SvgjsPath4956_1_" gradientUnits="userSpaceOnUse" x1="-47.1022" y1="562.7296" x2="-47.1022" y2="598.2968" gradientTransform="matrix(2.55 0 0 -2.55 464.9482 1948.0748)">
					<stop  offset="0" style="stop-color:#D2A186;stop-opacity:0.8"/>
					<stop  offset="0.7" style="stop-color:#B3724E"/>
				</linearGradient>
				<path id="SvgjsPath4956" class="st6" d="M344.8,512.8c37.7,0,50.7-12.8,64.6-24.6c-0.2-18,4-53.2,7.3-78.1
					c-41.8-5.9-102-5.9-143.8,0c3.3,24.9,7.5,60.1,7.3,78.1C294.2,499.9,307.1,512.8,344.8,512.8z"/>
			</g>
			<g id="svga-group-clothes-single">
				<path id="SvgjsPath4925" class="st7" d="M605.7,594.6c-28-54.1-81.8-46.4-133.3-60.9c-1.2,9.6-35.3,54.6-43.4,80.2
					c-4.5-3.8-10-8.9-13.9-13.5c-19.2-22.5-47.6-95.4-57.1-38.5c2.1-25.5,13.3-31.2,29-9.8c16.8,23,17.5,34.9,41.5,60
					c4.2-17.6,13.4-30,24.1-45.6c10.3-15.1,17.9-21.9,19-35.4c-3.9-6.4-2.9-9.3-9.2-13.5c-39.1-26.4-11.2-53.3-46.6-59.7
					c-0.3,3.2-0.6,6.8-0.9,9.5c7.6,3.9,9.8,19.1-1.8,30.2c-18.5,20.4-48.3,21.4-56.1,52.6l0,0c-2.5,9.3-4.5,23.5-5.4,31.8l-6.5,66.4
					l-6.6-65.2c-5.3-49-12.3-53.8-35.2-68.9c-15.1-10-39.9-25.2-31.8-42.3c0.9-2,2-3.2,3.4-4.1c-0.4-3.9-0.6-6.2-0.9-9.8
					c-29.3,1.2-24.8,42.6-46.9,57.9c-5.8,4-8.8,7.7-10.9,13.7c1.4,16.8,38.7,54.6,45.2,82.4c24.2-25.6,24.4-36.8,41.3-59.9
					c14.6-19.9,26.5-17.9,29,9.1c-1.4-8.1-4.6-20.5-11.7-20.5c-5.8,0-11.9,8.6-14.9,12.7c-16.8,23.1-19.5,39.7-44.4,60.4
					c-1.7-5.2-3.7-10.4-6.2-15.2c-9.9-19.9-36.6-60.2-39.6-64.1c-11.8,3.3-29.8,7-40.6,8.8C103.5,555.1,76.1,578,65.7,684.8
					c259.3-2.6,364.9-1.5,558.1-1.5C621.4,659.6,616.6,615.7,605.7,594.6z"/>
				<path id="SvgjsPath4926" class="st8" d="M451.5,565.9c-9.2,13.5-16.5,24.8-21.1,39c5.2-29.3,38.5-57,34.9-74.5
					c-1.5-7.5-28.1-24.2-29.5-49.1c7.3,22.8,34.7,39,34.7,49.9C470.6,549.1,470.1,538.7,451.5,565.9z M623.6,681.2
					c0.9-23.2-6.9-68.2-16.5-87c-28-54.1-84.2-47.2-135.7-61.7c-0.5,0.6,1.3,4.4,0.1,6.1C591.8,560.9,605.6,587.3,623.6,681.2z
					 M227,516c14.8-12.3,19.2-24.1,22.6-34.7c-7.6,43.4-19,27-27.3,48.8c-4.7,12.4,32,46.4,37,74.9c-6.5-11.1-13.5-24.8-22.7-38.3
					c-7.2-10.5-11.8-20.1-18.9-28.2C214.3,520.5,221.3,520.7,227,516z M217.7,538.4c-1.2-1.7-2.4-3.2-2.8-3.8
					c-51.5,14.5-103,5.6-130.9,59.7c-9.7,18.7-14.5,57-17.1,80.2c5.1-28.2,12.8-63.7,29.2-85.2C123.9,551.5,175.3,544.2,217.7,538.4
					z"/>
				<path id="SvgjsPath4927" class="st9" d="M397.8,514.2c-13,7.5-24,14.9-31.2,25.3c17.5,1,30.5,32.3,34,36.5
					c-32.9-45.8-45.3-14.7-49.3,14.5c1.2-9.5,2.1-25.6,4-32.5c0.5-2.8,1.1-5.4,1.7-7.7l0,0c7.8-31.2,37.6-32.3,56.1-52.6
					c11.7-11.1,9.4-26.3,1.8-30.2c0.3-2.7,0.6-6.3,0.9-9.5c1.9,0.4,3.7,0.8,5.3,1.3C444.9,480.2,414.1,506.9,397.8,514.2z
					 M288.7,514.2c13,7.5,28.8,16.4,36.1,25.9c-12.8-2.3-27,16.8-34.1,33.7c30.7-39.1,40-16.9,49.8,16.7c-1.1-9.5-4.1-25.6-5.9-32.5
					c-0.5-2.8-1.1-5.4-1.7-7.7l0,0c-7.8-31.2-36.5-32.3-55-52.6c-11.7-11.1-9.7-26.3-2.1-30.2c-0.3-2.7-0.6-6.3-0.9-9.5
					c-1.9,0.4-3.7,0.8-5.3,1.3C249.4,483.7,274.1,505.3,288.7,514.2z"/>
				<path id="SvgjsPath4928" class="st10" d="M413.9,492.6c0.1-15.2-0.4-6.8,1.1-24C420.9,471.8,421.7,484.9,413.9,492.6z
					 M275.9,491.2c-6.2-8.1-7-16.4-0.9-22.6C276.4,482,275.6,480.4,275.9,491.2z"/>
				<path id="SvgjsPath4929" class="st11" d="M471.9,528.9c-0.5-9.4-20.8-17.3-29.8-37.8c-6.4-14.6-0.3-31.3-26.8-34
					c-1.5,8.5-2.7,27.2-2.4,36.2c-13.4,14.5-34.2,18.2-47.4,33.8c-14.1,16.6-20.2,52.6-20.5,127.2l3.3-2.1c0,0,3.7-70.6,3.7-70.9
					c8.2-70.5,34.4-53.8,61.3-83.4c12.1-11.6,9.2-26.9,1.9-30.6c0.3-3,0.6-5.9,0.9-8.9c22.8,4.2,16.3,17.6,23.4,34
					c9.5,21.8,27.5,26.6,28.6,37.1c1.8,16.8-8.2,23.9-18.2,38.5c-15.8,22.8-19.4,34.5-21.6,43.5c-23.9-25.1-24-36.2-41.1-59.6
					c-18.3-25-30.2-13.3-35.3,29.3c0.5-7,10.1-45.8,21.5-39.1c13.2,7.7,26.1,40.3,41.5,58.4c4.1,4.9,9.4,9.7,14.3,13.8
					c9.1-31.7,42.7-65.3,43.8-80.6c52.5,14.8,142.6-0.4,150.6,149.3c-109.7,0.6-228.9-1.8-557.4,1.5c4.8-49.2,12.8-97.4,41.9-119.1
					c12.5-9.4,27-14.2,41.9-17.4c20.8-4.3,44.1-7.1,64.7-12.7c2.1,2.7,37.9,56.5,45.9,79c29-22.7,40.6-65.2,56.5-72.6
					c11.1-5.1,20.2,31.8,20.7,38.8c-4.3-45.1-18.5-59.8-45.4-13.1c-13.2,23-16.8,29.2-30.8,44c-5.7-24-45.1-69.2-43.4-81.8
					c1.7-12.4,16.8-9,26.9-35.3c5.7-14.8,4.4-31.1,28.6-35.9c0.3,3.1,0.6,6.2,0.9,9.3c-6.6,4.4-8.3,19,2.3,29.2
					c9.5,10.9,26.7,17.1,38,25.8c13.4,10.3,18.7,20.9,22.9,57.8c0.1,0.8,3.7,71.9,3.7,71.9l3.6,1.8c-1.8-74.2-8.9-118.9-23.3-131.4
					c-12.4-11.1-34.1-18.1-44.6-30.5c0.3-9.3-1.5-28.1-2.6-35.1c-24,2.4-24.7,17.7-29.9,31c-13.8,35.6-27,25.4-29.2,40.2
					c-0.2,1.4,0.1,2.4,0.4,4.3c-20.2,4.1-45.5,6.8-65.7,10.5c-30.3,5.5-58.8,21.5-71.8,51.9c-9.9,23.1-12.8,64.2-13.5,89.5
					c0,0.2,0,0.4,0,0.6c0.4,0,0.8,0,1.2,0c348,3.7,556-1.5,558.9-1.5C625.9,541.3,548.1,547.5,471.9,528.9z M414.1,491.8
					c0-7.8,0.3-16.9,0.8-23.2C419.2,471.7,422.6,481.8,414.1,491.8z M275.7,490.7c-7.1-9.3-4.3-18.2-1.1-21.3
					C275.3,475.6,275.6,484.4,275.7,490.7z"/>
			</g>
			
				<g id="svga-group-head" transform="matrix(0.9999999999999998,1.7453294018365817e-9,-1.7453294018365817e-9,0.9999999999999998,2.617994425690995e-7,-1.7453291434321727e-7)">
				<g id="svga-group-ears-left-move" transform="matrix(1,0,0,1,0,0)">
					<g id="svga-group-ears-left" transform="matrix(0.9499999,0,0,0.9499999,2.218062974553966,4.849983950741958)">
						<path id="SvgjsPath4717" class="st12" d="M207.3,289.1c-3.9-6.5-17.7-20.1-27.5-17.6c-7.9,2-16.1,8.7-16.1,19.9
							c0,17.5,4,24.9,6.7,32.8c2.3,6.7,10.4,19.1,15.4,23.9c6.1,5.9,15.9,24.9,17.1,26.9c1.9,3.1,5,8,10.8,8.2
							c8.8,0.3,18.9-5.6,19.5-9.3C236.6,353.9,217.5,306,207.3,289.1z"/>
						<path id="SvgjsPath4718" class="st13" d="M202.4,332.8c-0.4-1.5,0-4,0.4-6.4c0.3-2.2,0.7-4.3,0.5-5.8c-0.8-5.5-5-16-7.8-21.6
							c-3.2-6.5-11-14.7-17.5-16.9c-2.7-0.9-4.5,0.2-5.5,1.2c-0.8,0.8-0.9,1.7-0.7,1.8s0.8-0.7,1.6-1.4c0.7-0.6,1.6-1.1,3-1
							c-0.5,2.7-8.4,11.3-3.7,27.7c2.2,7.7,5.3,13.9,5.9,14.8c0.1,0.9,0.2,1.9,0.4,2.8c2.6,11.6,19.4,30.8,23.4,35.1
							c0.7,0.8,1.5,1.3,1.7,1.1c0.2-0.2-0.3-1-1-1.8c-3.9-4.3-20.6-23.4-23.2-34.6c-4.7-20.5,5.1-20.9,12-33.3
							c1.1,1.8,2,3.4,2.6,4.8c0.5,1.1,1.1,2.4,1.8,3.8c-1.2,1.9-13.5,16.2-10.4,27.5c1.2,4.2,10.1,9.6,13.5,11.1
							c1.9,0.8,2.6,2,3.4,3.4c1,1.6,2,7.5,5.2,8.8c0.6,0.3,1.2,0.4,1.7,0.4c0.9,0,1.6-0.3,2.1-0.7c0.1,0.7,0,1.6,0,2.5
							c0,1.1,0.1,2,0.4,2c0.3,0,0.6-0.8,0.6-1.9c0-1.3,0-3-0.2-3.8c-0.7-2.3-2.9-5-5.2-7.8C205.3,341.9,203,335.1,202.4,332.8z
							 M178.4,322.5c-6.2-18.2,2.6-34,4-36.5c2.4,2.1,7.1,4.9,8.8,7.7C183,308,178.9,298,178.4,322.5z M208.5,353.1
							c-2.9-1.2-3.8-6.8-4.7-8.4c-0.8-1.4-1.7-2.9-3.9-3.8c-0.5-0.2-1-0.5-1.5-0.9c-10.3-15.4,0.8-23,2.7-24.4
							c0.6,2,1.1,3.8,1.3,5.2c0.2,1.3-0.2,3.4-0.5,5.5c-0.4,2.5-0.8,5.1-0.4,6.8c0.6,2.5,3,9.4,5.4,12.3c2.1,2.5,4.2,5.1,4.9,7.2
							C211.4,353,210.4,354,208.5,353.1z"/>
					</g>
				</g>
				<g id="svga-group-ears-right-move" transform="matrix(1,0,0,1,0,0)">
					<g id="svga-group-ears-right" transform="matrix(0.9499999,0,0,0.9499999,7.768905155699144,4.849983950741958)">
						<path id="SvgjsPath4719" class="st12" d="M507.4,289.1c3.9-6.5,17.7-20.1,27.5-17.6c7.9,2,16.1,8.7,16.1,19.9
							c0,17.5-4,24.9-6.7,32.8c-2.3,6.7-10.4,19.1-15.4,23.9c-6.1,5.9-15.9,24.9-17.1,26.9c-1.9,3.1-5,8-10.8,8.2
							c-8.8,0.3-18.9-5.6-19.5-9.3C478.1,353.9,497.2,306,507.4,289.1z"/>
						<path id="SvgjsPath4720" class="st13" d="M507.2,344.7c-2.3,2.8-4.4,5.4-5.2,7.8c-0.2,0.8-0.2,2.5-0.2,3.8
							c0,1.1,0.3,2,0.6,1.9c0.3,0,0.4-0.9,0.4-2c0-0.8,0-1.8,0-2.5c0.5,0.4,1.2,0.7,2.1,0.7c0.5,0,1.1-0.1,1.7-0.4
							c3.2-1.3,4.2-7.2,5.2-8.8c0.8-1.4,1.5-2.6,3.4-3.4c3.4-1.5,12.4-6.9,13.5-11.1c3.1-11.4-9.2-25.6-10.4-27.5
							c0.6-1.4,1.2-2.7,1.8-3.8c0.7-1.4,1.6-3.1,2.7-4.8c6.9,12.4,16.7,12.7,12,33.3c-2.6,11.2-19.2,30.3-23.2,34.6
							c-0.7,0.8-1.2,1.6-1,1.8c0.2,0.2,1-0.3,1.7-1.1c4-4.3,20.8-23.5,23.4-35.1c0.2-0.9,0.3-1.8,0.4-2.8c0.6-0.9,3.7-7.1,5.9-14.8
							c4.7-16.5-3.1-25-3.7-27.7c1.3-0.1,2.3,0.4,3,1c0.8,0.7,1.4,1.5,1.6,1.4c0.3-0.1,0.1-1-0.7-1.8c-1-1.1-2.8-2.1-5.5-1.2
							c-6.5,2.1-14.3,10.3-17.5,16.9c-2.8,5.7-7.1,16.1-7.8,21.6c-0.2,1.5,0.1,3.6,0.5,5.8c0.4,2.4,0.8,4.9,0.4,6.4
							C511.8,335.1,509.4,341.9,507.2,344.7z M523.4,293.6c1.7-2.7,6.4-5.6,8.8-7.7c1.4,2.5,10.2,18.3,4,36.5
							C535.8,298,531.7,308,523.4,293.6z M503,352.5c0.7-2.1,2.8-4.7,4.9-7.2c2.3-2.8,4.7-9.7,5.4-12.3c0.4-1.7,0-4.3-0.4-6.8
							c-0.3-2-0.7-4.1-0.5-5.5c0.2-1.4,0.7-3.2,1.3-5.2c2,1.4,13,9.1,2.7,24.4c-0.5,0.4-1.1,0.7-1.5,0.9c-2.2,0.9-3.1,2.4-3.9,3.8
							c-0.9,1.6-1.9,7.2-4.7,8.4C504.3,354,503.3,353,503,352.5z"/>
					</g>
				</g>
				<g id="svga-group-faceshape-wrap" transform="matrix(1,0,0,1,0,0)">
					<g id="svga-group-faceshape-single">
						<path id="SvgjsPath4953" class="st2" d="M344.8,59.3c-89.7,0.1-162.5,74.3-162.4,165.6c0,14.5,1.9,28.6,5.3,42h0
							c0,0.1,30.8,103.6,37.4,137.6c3.7,19,26.1,36,46.1,50c18.6,13,28.1,31.7,73.6,31.7s55-18.7,73.6-31.7
							c19.9-13.9,42.4-31,46.1-50c6.6-34,37.4-137.4,37.4-137.6h0c3.5-13.4,5.3-27.5,5.3-42C507.4,133.6,434.5,59.4,344.8,59.3z"/>
						<path id="SvgjsPath4954" class="st14" d="M469.6,118.9c19.9,27.8,31.8,62.4,31.7,99.9c0,14.5-1.8,28.6-5.1,42h0
							c0,0.1-29.7,103.6-36,137.6c-3.6,19-25.3,36-44.5,50c-17.9,13-27,31.7-70.8,31.7c-43.8,0-52.9-18.7-70.8-31.7
							c-19.2-13.9-40.9-31-44.5-50c-6.4-34-36-137.4-36-137.6l0,0c-3.3-13.4-5.1-27.5-5.2-42c-0.1-37.5,11.8-72.1,31.7-99.9
							c-23.5,28.7-37.6,65.6-37.6,105.9c0,14.5,1.9,28.6,5.3,42h0c0,0.1,30.8,103.6,37.4,137.6c3.7,19,26.1,36,46.1,50
							c18.6,13,28.1,31.7,73.6,31.7s55-18.7,73.6-31.7c19.9-13.9,42.4-31,46.1-50c6.6-34,37.4-137.4,37.4-137.6h0
							c3.5-13.4,5.3-27.5,5.3-42C507.3,184.6,493.1,147.7,469.6,118.9z"/>
						<path id="SvgjsPath4955" class="st5" d="M344.8,59.3c-89.7,0.1-162.5,74.3-162.4,165.6c0,14.5,1.9,28.6,5.3,42h0
							c0,0.1,30.8,103.6,37.4,137.6c3.7,19,26.1,36,46.1,50c18.6,13,28.1,31.7,73.6,31.7s55-18.7,73.6-31.7
							c19.9-13.9,42.4-31,46.1-50c6.6-34,37.4-137.4,37.4-137.6h0c3.5-13.4,5.3-27.5,5.3-42C507.4,133.6,434.5,59.4,344.8,59.3z"/>
					</g>
				</g>
				<g id="svga-group-mouth-single-move" transform="matrix(1,0,0,1,0,0)">
					<g id="svga-group-mouth-single" transform="matrix(1,0,0,1,0,0)">
						<path id="SvgjsPath3123" class="st13" d="M345.7,435.6c-4.1,0-8-0.5-10.4-1.5c-0.7-0.3-1-1-0.8-1.7c0.3-0.7,1-1,1.7-0.8
							c4.4,1.7,15.6,1.8,20.6-0.5c0.7-0.3,1.5,0,1.8,0.6c0.3,0.7,0,1.5-0.6,1.8C355,434.9,350.3,435.6,345.7,435.6z M384.9,412.9
							c1.1-0.5,1.6-1.7,1.1-2.8s-1.7-1.6-2.8-1.1c-31.1,13.3-76.7,0.9-77.1,0.8c-1.1-0.3-2.3,0.3-2.6,1.5c-0.3,1.1,0.3,2.3,1.5,2.6
							c1.2,0.3,20.5,5.6,42.8,5.6C360.1,419.5,373.3,417.9,384.9,412.9z"/>
					</g>
				</g>
				<g id="svga-group-eyes-left-move" transform="matrix(1,0,0,1,0,0)">
					
						<g id="svga-group-eyes-left" transform="matrix(0.8999997000000001,0,0,0.8999997000000001,7.461054106117629,8.426306444920158)">
						<g id="svga-group-eyesback-left">
							
								<radialGradient id="SvgjsPath4317_1_" cx="-253.3681" cy="702.0041" r="11.7816" gradientTransform="matrix(-2.5236 9.707841e-02 -0.1457 -2.113 -240.4141 1811.6268)" gradientUnits="userSpaceOnUse">
								<stop  offset="0" style="stop-color:#FFFFFF"/>
								<stop  offset="0.544" style="stop-color:#FDFEFE"/>
								<stop  offset="0.74" style="stop-color:#F6F8F9"/>
								<stop  offset="0.879" style="stop-color:#EAEFF2"/>
								<stop  offset="0.992" style="stop-color:#D9E3E8"/>
								<stop  offset="1" style="stop-color:#D8E2E7"/>
							</radialGradient>
							<path id="SvgjsPath4317" class="st15" d="M305.3,288c12.2,1.8,21.2,9.3,28.7,21.2c0,0,0,0,0,0c0,0.1,0.1,0.1,0.1,0.2
								c0.7,2.7-2.2,4.9-5.7,6.5c-12.7,1.6-25,4-37.9,2.3c-25.8-3.3-26.3-14.7-27.5-17.7c-0.7-2.9-0.9-3.8-0.8-6.6
								c6.2-3.6,10.8-4.4,15.6-5.3C283.4,287.5,296,286.6,305.3,288z"/>
						</g>
						<g id="svga-group-eyesiriswrapper-left" transform="matrix(1,0,0,1,0.25,0)">
							<g id="svga-group-eyesiriscontrol-left" transform="matrix(1,0,0,1,0,0)">
								<g id="svga-group-eyesiris-left" transform="matrix(1,0,0,1,0,0)">
									<path id="SvgjsPath4671" class="st16" d="M314.4,303c0,8.8-7.2,16-16,16c-8.8,0-16-7.2-16-16l0,0c0-8.8,7.2-16,16-16
										C307.2,287,314.4,294.1,314.4,303L314.4,303z"/>
									
										<radialGradient id="SvgjsPath4672_1_" cx="101.1117" cy="783.8896" r="53.1295" gradientTransform="matrix(0.2203 -5.691595e-02 -5.622745e-02 -0.2205 319.9994 481.6752)" gradientUnits="userSpaceOnUse">
										<stop  offset="0" style="stop-color:#FFFFFF"/>
										<stop  offset="1" style="stop-color:#FFFFFF;stop-opacity:0"/>
									</radialGradient>
									<path id="SvgjsPath4672" class="st17" d="M296.6,287.2c-0.1,0-0.1,0-0.2,0c0.1,0.4,0.2,0.7,0.2,1.1
										C296.6,287.9,296.6,287.5,296.6,287.2z M296.6,288.3c0.2,5.3,0.5,9.9,1.4,11.6C298.5,298,297.7,293.4,296.6,288.3z
										 M298,299.9c-0.1,0.4-0.3,0.7-0.6,0.9c-0.3,0.1-0.6,0-1-0.3c0.1,0.4,0.1,0.8-0.1,1c-0.2,0.2-0.5,0.3-1,0.2
										c0.3,0.3,0.5,0.7,0.4,0.9c-0.1,0.3-0.4,0.5-0.8,0.6c0.4,0.2,0.7,0.4,0.8,0.7c0.1,0.3-0.1,0.6-0.4,0.9c0.5-0.1,0.8,0,1,0.2
										c0.2,0.2,0.2,0.6,0.1,1c0.4-0.3,0.7-0.4,1-0.3c0.3,0.1,0.4,0.4,0.5,0.9c0.2-0.4,0.5-0.7,0.7-0.7c0.3,0,0.6,0.2,0.9,0.5
										c0-0.5,0.1-0.8,0.3-1c0.2-0.2,0.6-0.1,1,0c-0.2-0.4-0.3-0.7-0.1-1c0.1-0.3,0.5-0.4,0.9-0.4c-0.4-0.3-0.6-0.5-0.6-0.8
										c0-0.3,0.2-0.6,0.6-0.8c-0.5-0.1-0.8-0.2-0.9-0.4c-0.1-0.3-0.1-0.6,0.2-1c-0.4,0.2-0.8,0.2-1,0c-0.2-0.2-0.3-0.5-0.3-1
										c-0.3,0.3-0.6,0.5-0.9,0.5C298.5,300.6,298.2,300.3,298,299.9z M299.6,300.1c1.3-1.4,2.7-5.9,4.2-10.9
										C301.6,293.9,299.6,298.2,299.6,300.1z M303.8,289.2c0.2-0.3,0.3-0.7,0.5-1c-0.1,0-0.1,0-0.2-0.1
										C304,288.5,303.9,288.8,303.8,289.2z M301,301c1.8-0.7,5.2-4,8.8-7.7C305.6,296.4,301.9,299.3,301,301z M309.8,293.3
										c0.3-0.2,0.5-0.4,0.8-0.6c0,0-0.1-0.1-0.1-0.1C310.3,292.8,310,293,309.8,293.3z M301.7,302.5c1.9,0.2,6.4-1.1,11.4-2.8
										C307.9,300.5,303.3,301.4,301.7,302.5z M313.1,299.7c0.3,0,0.6-0.1,0.9-0.1c0-0.1,0-0.1,0-0.2
										C313.7,299.5,313.4,299.6,313.1,299.7z M301.7,304.1c1.6,1.1,6.2,2,11.4,2.8C308.1,305.3,303.6,303.9,301.7,304.1z
										 M313.1,307c0.3,0.1,0.5,0.2,0.8,0.3c0,0,0-0.1,0-0.1C313.6,307,313.4,307,313.1,307z M301,305.6c0.9,1.7,4.6,4.6,8.8,7.8
										C306.1,309.6,302.8,306.3,301,305.6z M309.7,313.4c0.2,0.2,0.3,0.3,0.5,0.5c0,0,0.1-0.1,0.1-0.1
										C310.1,313.6,309.9,313.5,309.7,313.4z M299.6,306.5c0,1.9,1.9,6.2,4.1,11C302.3,312.4,300.9,307.9,299.6,306.5z
										 M303.8,317.5c0.1,0.2,0.1,0.4,0.2,0.6c0,0,0.1,0,0.1,0C303.9,317.8,303.8,317.7,303.8,317.5z M298,306.7
										c-0.9,1.7-1.2,6.4-1.4,11.6C297.6,313.2,298.5,308.5,298,306.7z M296.6,318.3c0,0.2-0.1,0.4-0.1,0.6c0,0,0.1,0,0.1,0
										C296.5,318.7,296.6,318.5,296.6,318.3z M296.5,306.1c-1.6,1.1-4.1,5.1-6.7,9.6C293.1,311.7,296,308,296.5,306.1z
										 M289.8,315.7c-0.1,0.2-0.3,0.3-0.4,0.5c0,0,0.1,0,0.1,0.1C289.6,316.1,289.7,315.9,289.8,315.7z M295.4,304.9
										c-1.9,0.2-6,2.6-10.4,5.4C289.9,308.3,294.1,306.3,295.4,304.9z M285,310.3c-0.2,0.1-0.5,0.2-0.7,0.3c0,0,0,0.1,0.1,0.1
										C284.6,310.6,284.8,310.4,285,310.3z M295,303.3c-1.8-0.7-6.5-0.4-11.7,0C288.5,303.7,293.2,304,295,303.3z M283.3,303.3
										c-0.3,0-0.6-0.1-0.9-0.1c0,0.1,0,0.1,0,0.1C282.7,303.3,283,303.3,283.3,303.3z M295.4,301.7c-1.3-1.4-5.5-3.4-10.4-5.5
										C289.5,299.1,293.5,301.5,295.4,301.7z M285,296.2c-0.3-0.2-0.6-0.4-0.8-0.5c0,0.1-0.1,0.1-0.1,0.1
										C284.4,296,284.7,296.1,285,296.2z M296.5,300.5c-0.5-1.9-3.3-5.6-6.6-9.7C292.5,295.4,294.9,299.4,296.5,300.5z
										 M289.9,290.8c-0.2-0.3-0.4-0.6-0.5-0.9c-0.1,0-0.1,0.1-0.1,0.1C289.4,290.3,289.6,290.5,289.9,290.8z"/>
									
										<radialGradient id="SvgjsPath4676_1_" cx="240.573" cy="1103.5476" r="53.1315" gradientTransform="matrix(0.2274 2.032523e-03 2.524497e-03 -0.2274 240.7012 553.5519)" gradientUnits="userSpaceOnUse">
										<stop  offset="0" style="stop-color:#FFFFFF"/>
										<stop  offset="1" style="stop-color:#FFFFFF;stop-opacity:0"/>
									</radialGradient>
									<path id="SvgjsPath4676" class="st18" d="M300.8,287.2c-0.1,0-0.1,0-0.2,0c0,0.4,0,0.7-0.1,1.1
										C300.6,287.9,300.7,287.6,300.8,287.2z M300.5,288.3c-1.2,5.1-2.1,9.7-1.7,11.6C299.8,298.2,300.2,293.5,300.5,288.3z
										 M298.8,299.9c-0.2,0.4-0.5,0.6-0.8,0.7c-0.3,0-0.6-0.2-0.9-0.5c0,0.5-0.1,0.8-0.4,0.9c-0.2,0.2-0.6,0.1-1-0.1
										c0.2,0.4,0.3,0.8,0.1,1c-0.1,0.3-0.5,0.4-0.9,0.4c0.4,0.3,0.6,0.5,0.6,0.8c0,0.3-0.2,0.6-0.6,0.8c0.5,0.1,0.8,0.2,0.9,0.5
										c0.1,0.3,0,0.6-0.2,1c0.4-0.2,0.8-0.2,1,0c0.2,0.2,0.3,0.5,0.3,1c0.3-0.3,0.6-0.5,0.9-0.5c0.3,0,0.5,0.3,0.7,0.7
										c0.1-0.4,0.3-0.7,0.6-0.8c0.3-0.1,0.6,0,1,0.3c-0.1-0.4-0.1-0.8,0.1-1c0.2-0.2,0.5-0.3,1-0.2c-0.3-0.4-0.4-0.7-0.4-0.9
										c0.1-0.3,0.4-0.5,0.8-0.6c-0.4-0.2-0.7-0.4-0.8-0.7c-0.1-0.3,0.1-0.6,0.4-0.9c-0.5,0-0.8,0-1-0.2c-0.2-0.2-0.2-0.6-0.1-1
										c-0.4,0.3-0.7,0.4-1,0.2C299.1,300.6,298.9,300.3,298.8,299.9z M300.3,300.5c1.6-1.1,4.2-5,6.9-9.5
										C303.8,295,300.8,298.6,300.3,300.5z M307.2,291c0.2-0.3,0.5-0.5,0.7-0.8c-0.1,0-0.1-0.1-0.1-0.1
										C307.6,290.4,307.4,290.7,307.2,291z M301.4,301.7c1.9-0.2,6-2.5,10.5-5.2C307,298.5,302.7,300.3,301.4,301.7z
										 M311.9,296.5c0.3-0.1,0.6-0.2,0.9-0.4c0-0.1-0.1-0.1-0.1-0.2C312.5,296.2,312.2,296.4,311.9,296.5z M301.8,303.3
										c1.8,0.7,6.5,0.6,11.7,0.3C308.3,303.1,303.6,302.7,301.8,303.3z M313.5,303.6c0.3,0,0.6,0.1,0.9,0.1c0-0.1,0-0.1,0-0.2
										C314.1,303.6,313.8,303.6,313.5,303.6z M301.3,304.9c1.2,1.5,5.5,3.5,10.2,5.7C307.2,307.7,303.2,305.2,301.3,304.9z
										 M311.6,310.6c0.2,0.2,0.4,0.3,0.7,0.4c0,0,0-0.1,0.1-0.1C312.1,310.8,311.8,310.7,311.6,310.6z M300.2,306.1
										c0.4,1.9,3.2,5.7,6.4,9.8C304.1,311.3,301.8,307.2,300.2,306.1z M306.7,315.9c0.1,0.2,0.2,0.4,0.3,0.6c0,0,0.1,0,0.1-0.1
										C306.9,316.3,306.8,316.1,306.7,315.9z M298.7,306.7c-0.5,1.8,0.2,6.5,1.1,11.7C299.7,313.1,299.5,308.4,298.7,306.7z
										 M299.8,318.3c0,0.2,0,0.4,0,0.6c0,0,0.1,0,0.1,0C299.9,318.8,299.9,318.5,299.8,318.3z M297.1,306.4
										c-1.3,1.4-2.8,5.8-4.4,10.9C295,312.6,297,308.4,297.1,306.4z M292.6,317.3c-0.1,0.2-0.2,0.4-0.3,0.6c0,0,0.1,0,0.1,0
										C292.5,317.7,292.6,317.5,292.6,317.3z M295.7,305.5c-1.8,0.6-5.2,3.9-9,7.6C291.1,310,294.8,307.2,295.7,305.5z
										 M286.8,313c-0.2,0.1-0.4,0.3-0.5,0.4c0,0,0.1,0.1,0.1,0.1C286.5,313.4,286.6,313.2,286.8,313z M295,304
										c-1.9-0.3-6.4,1-11.4,2.5C288.8,305.8,293.4,305.1,295,304z M283.6,306.6c-0.2,0-0.5,0.1-0.8,0.1c0,0,0,0.1,0,0.1
										C283.1,306.7,283.3,306.6,283.6,306.6z M295,302.4c-1.6-1.1-6.1-2.1-11.3-3.1C288.7,301.1,293.1,302.6,295,302.4z
										 M283.7,299.3c-0.3-0.1-0.5-0.2-0.8-0.3c0,0.1,0,0.1,0,0.1C283.2,299.2,283.4,299.3,283.7,299.3z M295.8,300.9
										c-0.8-1.7-4.4-4.7-8.6-8C290.8,296.9,294.1,300.2,295.8,300.9z M287.2,293c-0.2-0.2-0.4-0.5-0.7-0.7c0,0-0.1,0.1-0.1,0.1
										C286.7,292.6,287,292.8,287.2,293z M297.2,300c0-1.9-1.7-6.3-3.9-11C294.6,294.1,296,298.6,297.2,300z M293.3,289
										c-0.1-0.3-0.2-0.7-0.3-1c-0.1,0-0.1,0-0.2,0.1C293,288.3,293.2,288.7,293.3,289z"/>
									<path id="SvgjsPath4680" class="st16" d="M304.7,303c0,3.5-2.8,6.3-6.3,6.3c-3.5,0-6.3-2.8-6.3-6.3c0-3.5,2.8-6.3,6.3-6.3
										C301.9,296.7,304.7,299.5,304.7,303z"/>
									<path id="SvgjsPath4681" class="st19" d="M304.7,303c0,3.5-2.8,6.3-6.3,6.3c-3.5,0-6.3-2.8-6.3-6.3c0-3.5,2.8-6.3,6.3-6.3
										C301.9,296.7,304.7,299.5,304.7,303z"/>
									
										<linearGradient id="SvgjsPath4682_1_" gradientUnits="userSpaceOnUse" x1="-14.1359" y1="707.5581" x2="-13.3036" y2="708.5504" gradientTransform="matrix(2.295 0 0 -2.295 321.9619 1938.2117)">
										<stop  offset="0" style="stop-color:#FFFFFF"/>
										<stop  offset="1" style="stop-color:#FFFFFF;stop-opacity:0"/>
									</linearGradient>
									<path id="SvgjsPath4682" class="st20" d="M289.6,310.3c1.2-0.8,2.8-0.5,3.6,0.7c0.8,1.2,0.5,2.8-0.7,3.6
										c-1.2,0.8-2.8,0.5-3.6-0.7C288.1,312.7,288.4,311.1,289.6,310.3L289.6,310.3z"/>
									
										<linearGradient id="SvgjsPath4686_1_" gradientUnits="userSpaceOnUse" x1="-8.8574" y1="714.5002" x2="-9.5234" y2="713.7062" gradientTransform="matrix(2.295 0 0 -2.295 321.9619 1938.2117)">
										<stop  offset="0" style="stop-color:#FFFFFF"/>
										<stop  offset="1" style="stop-color:#FFFFFF;stop-opacity:0"/>
									</linearGradient>
									<path id="SvgjsPath4686" class="st21" d="M303.4,302.1c-0.7,1-2.6,0.9-4.3-0.3c-1.7-1.1-2.5-2.9-1.9-3.9v0
										c0.7-1,2.6-0.9,4.3,0.3C303.2,299.4,304,301.1,303.4,302.1L303.4,302.1z"/>
									
										<linearGradient id="SvgjsPath4690_1_" gradientUnits="userSpaceOnUse" x1="-6.04" y1="717.3759" x2="-7.5747" y2="715.5469" gradientTransform="matrix(2.295 0 0 -2.295 321.9619 1938.2117)">
										<stop  offset="0" style="stop-color:#FFFFFF"/>
										<stop  offset="1" style="stop-color:#FFFFFF;stop-opacity:0"/>
									</linearGradient>
									<path id="SvgjsPath4690" class="st22" d="M311,299.4c-1.5,2.3-5.4,2.5-8.7,0.3c-3.3-2.2-4.8-5.8-3.2-8.1
										c1.5-2.3,5.4-2.5,8.7-0.3C311,293.5,312.5,297.1,311,299.4L311,299.4z"/>
								</g>
							</g>
						</g>
						<g id="svga-group-eyesfront-left">
							<path id="SvgjsPath4342" class="st2" d="M247.6,301.9c8.6,30.2,19.9,62.2,47.2,63.1c27.2,0.9,59-19.3,59.5-59.3
								c0.5-44.7-27.9-62.4-55.2-63.3C271.8,241.4,234.8,256.9,247.6,301.9z M263,300.6c-0.7-2.9-0.9-3.8-0.8-6.6
								c5.4-3.2,10.8-4.1,15.6-5.1c5.7-1.1,18.3-2.3,27.5-0.9c12.2,1.8,21.2,9.3,28.7,21.2c0,0,0,0,0,0c0,0.1,0.1,0.1,0.1,0.2
								c0.7,2.7-2.2,4.9-5.7,6.5c-12.7,1.6-25,4-37.9,2.3C264.7,314.9,264.2,303.5,263,300.6z"/>
							
								<radialGradient id="SvgjsPath4343_1_" cx="-7.3919" cy="797.2794" r="15.1532" fx="4.556" fy="796.3171" gradientTransform="matrix(2.2684 0.3137 -0.3066 1.6877 566.5299 -1044.9128)" gradientUnits="userSpaceOnUse">
								<stop  offset="0" style="stop-color:#D2A186"/>
								<stop  offset="0.7" style="stop-color:#D2A186;stop-opacity:0.3"/>
								<stop  offset="1" style="stop-color:#E1BBA6;stop-opacity:0"/>
							</radialGradient>
							<path id="SvgjsPath4343" class="st23" d="M298.6,332.8c24.7,3.7,47.6-8,51.2-26.3c3.6-18.3-13.5-36.1-38.2-39.9
								c-24.7-3.7-47.6,8-51.2,26.3C256.8,311.2,273.9,329,298.6,332.8z M262.1,294c5.7-3,10.8-4.1,15.6-5.1
								c5.7-1.1,18.3-2.3,27.5-0.9c12.2,1.8,21.2,9.3,28.7,21.2c0,0,0,0,0,0c0,0.1,0.1,0.1,0.1,0.2c0.7,2.7-2.2,4.9-5.7,6.5
								c-12.7,1.6-25,4-37.9,2.3c-25.8-3.3-26.3-14.7-27.5-17.7C262.3,297.6,262.1,296.8,262.1,294z"/>
							
								<radialGradient id="SvgjsPath4348_1_" cx="-30.2476" cy="673.8232" r="23.3294" gradientTransform="matrix(1.6485 -0.1377 -0.1843 -1.4098 466.7645 1276.4397)" gradientUnits="userSpaceOnUse">
								<stop  offset="0.95" style="stop-color:#000000;stop-opacity:0"/>
								<stop  offset="1" style="stop-color:#000000;stop-opacity:0.2"/>
							</radialGradient>
							<path id="SvgjsPath4348" class="st24" d="M263,300.6c-0.7-2.9-0.9-3.8-0.8-6.6c5.6-3.1,10.8-4.1,15.6-5.1
								c5.7-1.1,18.3-2.3,27.5-0.9c12.2,1.8,21.2,9.3,28.7,21.2c0,0,0,0,0,0c0,0.1,0.1,0.1,0.1,0.2c0.7,2.7-2.2,4.9-5.7,6.5
								c-12.7,1.6-25,4-37.9,2.3C264.7,314.9,264.2,303.5,263,300.6z"/>
							<path id="SvgjsPath4352" class="st13" d="M304.2,281c8.8,1.4,17.4,5.5,25.3,10.5c1.7,1.1,3.6,2.3,6.7,3.9
								c-2.2-0.5-4.3-1.6-6.2-2.7c2,1.9,3.8,4.1,5.3,6.2c-6.7-8.4-19.5-14.8-30.3-16.9c-10.4-2.1-29.3-0.7-43.4,5.4
								C274.5,280.2,293.3,279.2,304.2,281z"/>
							<path id="SvgjsPath4353" d="M334,309.1c-7.6-11.6-16.5-18.9-28.8-20.7c-12.9-1.9-30.1-0.6-40.1,4.9c-0.8,0.5-4.3,3.3-3.7,0.3
								c2.3-3.1,11.5-6.7,16-7.8C327.4,273.7,336.9,313.3,334,309.1z M262.4,299.9c-1.9,5.5,2.3,17.7,27.1,20
								c17.6,1.6,42.1-4.7,39-4.3c-12.7,1.6-25,3.9-37.9,2.2C261.2,314.2,264.6,300.4,262.4,299.9z"/>
						</g>
					</g>
				</g>
				<g id="svga-group-eyes-right-move" transform="matrix(1,0,0,1,0,0)">
					
						<g id="svga-group-eyes-right" transform="matrix(0.8999997000000001,0,0,0.8999997000000001,12.487241059633249,8.426285273286808)">
						<g id="svga-group-eyesback-right">
							
								<radialGradient id="SvgjsPath4325_1_" cx="-32.9257" cy="712.3881" r="11.7808" gradientTransform="matrix(2.5236 9.707841e-02 0.1457 -2.113 425.5257 1812.1691)" gradientUnits="userSpaceOnUse">
								<stop  offset="0" style="stop-color:#FFFFFF"/>
								<stop  offset="0.544" style="stop-color:#FDFEFE"/>
								<stop  offset="0.74" style="stop-color:#F6F8F9"/>
								<stop  offset="0.879" style="stop-color:#EAEFF2"/>
								<stop  offset="0.992" style="stop-color:#D9E3E8"/>
								<stop  offset="1" style="stop-color:#D8E2E7"/>
							</radialGradient>
							<path id="SvgjsPath4325" class="st25" d="M437.7,288c-12.2,1.8-21.2,9.3-28.7,21.2c0,0,0,0,0,0c0,0.1-0.1,0.1-0.1,0.2
								c-0.7,2.7,2.2,4.9,5.7,6.5c12.7,1.6,25,4,37.9,2.3c25.8-3.3,26.3-14.7,27.5-17.7c0.7-2.9,0.9-3.8,0.8-6.6
								c-6.2-3.6-10.8-4.4-15.6-5.3C459.5,287.5,446.9,286.6,437.7,288z"/>
						</g>
						<g id="svga-group-eyesiriswrapper-right" transform="matrix(1,0,0,1,-0.25,0)">
							<g id="svga-group-eyesiriscontrol-right" transform="matrix(1,0,0,1,0,0)">
								<g id="svga-group-eyesiris-right" transform="matrix(1,0,0,1,0,0)">
									<path id="SvgjsPath4694" class="st16" d="M461.6,303c0,8.8-7.2,16-16,16c-8.8,0-16-7.2-16-16l0,0c0-8.8,7.2-16,16-16
										C454.4,287,461.6,294.1,461.6,303L461.6,303z"/>
									
										<radialGradient id="SvgjsPath4695_1_" cx="15.2177" cy="804.7452" r="53.1303" gradientTransform="matrix(0.2203 -5.691595e-02 -5.622745e-02 -0.2205 487.2859 481.386)" gradientUnits="userSpaceOnUse">
										<stop  offset="0" style="stop-color:#FFFFFF"/>
										<stop  offset="1" style="stop-color:#FFFFFF;stop-opacity:0"/>
									</radialGradient>
									<path id="SvgjsPath4695" class="st26" d="M443.8,287.2c-0.1,0-0.1,0-0.2,0c0.1,0.4,0.2,0.7,0.2,1.1
										C443.8,287.9,443.8,287.5,443.8,287.2z M443.8,288.3c0.2,5.3,0.5,9.9,1.4,11.6C445.7,298,444.9,293.4,443.8,288.3z
										 M445.2,299.9c-0.1,0.4-0.3,0.7-0.6,0.9c-0.3,0.1-0.6,0-1-0.3c0.1,0.4,0.1,0.8-0.1,1c-0.2,0.2-0.5,0.3-1,0.2
										c0.3,0.3,0.5,0.7,0.4,0.9c-0.1,0.3-0.4,0.5-0.8,0.6c0.4,0.2,0.7,0.4,0.8,0.7c0.1,0.3-0.1,0.6-0.4,0.9c0.5-0.1,0.8,0,1,0.2
										c0.2,0.2,0.2,0.6,0.1,1c0.4-0.3,0.7-0.4,1-0.3c0.3,0.1,0.4,0.4,0.5,0.9c0.2-0.4,0.5-0.7,0.7-0.7c0.3,0,0.6,0.2,0.9,0.5
										c0-0.5,0.1-0.8,0.3-1c0.2-0.2,0.6-0.1,1,0c-0.2-0.4-0.3-0.7-0.1-1c0.1-0.3,0.5-0.4,0.9-0.4c-0.4-0.3-0.6-0.5-0.6-0.8
										c0-0.3,0.2-0.6,0.6-0.8c-0.5-0.1-0.8-0.2-0.9-0.4c-0.1-0.3-0.1-0.6,0.2-1c-0.4,0.2-0.8,0.2-1,0s-0.3-0.5-0.3-1
										c-0.3,0.3-0.6,0.5-0.9,0.5C445.7,300.6,445.4,300.3,445.2,299.9z M446.8,300.1c1.3-1.4,2.7-5.9,4.2-10.9
										C448.7,293.9,446.8,298.2,446.8,300.1z M451,289.2c0.2-0.3,0.3-0.7,0.5-1c-0.1,0-0.1,0-0.2-0.1
										C451.2,288.5,451.1,288.8,451,289.2z M448.2,301c1.8-0.7,5.2-4,8.8-7.7C452.8,296.4,449.1,299.3,448.2,301z M457,293.3
										c0.3-0.2,0.5-0.4,0.8-0.6c0,0-0.1-0.1-0.1-0.1C457.4,292.8,457.2,293,457,293.3z M448.9,302.5c1.9,0.2,6.4-1.1,11.4-2.8
										C455.1,300.5,450.5,301.4,448.9,302.5z M460.3,299.7c0.3,0,0.6-0.1,0.9-0.1c0-0.1,0-0.1,0-0.2
										C460.9,299.5,460.6,299.6,460.3,299.7z M448.9,304.1c1.6,1.1,6.2,2,11.4,2.8C455.3,305.3,450.8,303.9,448.9,304.1z
										 M460.3,307c0.3,0.1,0.5,0.2,0.8,0.3c0,0,0-0.1,0-0.1C460.8,307,460.6,307,460.3,307z M448.2,305.6
										c0.9,1.7,4.6,4.6,8.8,7.8C453.3,309.6,450,306.3,448.2,305.6z M456.9,313.4c0.2,0.2,0.3,0.3,0.5,0.5c0,0,0.1-0.1,0.1-0.1
										C457.3,313.6,457.1,313.5,456.9,313.4z M446.8,306.5c0,1.9,1.9,6.2,4.1,11C449.5,312.4,448.1,307.9,446.8,306.5z
										 M450.9,317.5c0.1,0.2,0.1,0.4,0.2,0.6c0,0,0.1,0,0.1,0C451.1,317.8,451,317.7,450.9,317.5z M445.2,306.7
										c-0.9,1.7-1.2,6.4-1.4,11.6C444.8,313.2,445.7,308.5,445.2,306.7z M443.7,318.3c0,0.2-0.1,0.4-0.1,0.6c0,0,0.1,0,0.1,0
										C443.7,318.7,443.7,318.5,443.7,318.3z M443.7,306.1c-1.6,1.1-4.1,5.1-6.7,9.6C440.3,311.7,443.2,308,443.7,306.1z
										 M437,315.7c-0.1,0.2-0.3,0.3-0.4,0.5c0,0,0.1,0,0.1,0.1C436.8,316.1,436.9,315.9,437,315.7z M442.6,304.9
										c-1.9,0.2-5.9,2.6-10.4,5.4C437,308.3,441.3,306.3,442.6,304.9z M432.2,310.3c-0.2,0.1-0.5,0.2-0.7,0.3c0,0,0,0.1,0.1,0.1
										C431.8,310.6,432,310.4,432.2,310.3z M442.2,303.3c-1.8-0.7-6.5-0.4-11.7,0C435.7,303.7,440.4,304,442.2,303.3z
										 M430.5,303.3c-0.3,0-0.6-0.1-0.9-0.1c0,0.1,0,0.1,0,0.1C429.9,303.3,430.2,303.3,430.5,303.3z M442.6,301.7
										c-1.3-1.4-5.5-3.4-10.4-5.5C436.7,299.1,440.7,301.5,442.6,301.7z M432.2,296.2c-0.3-0.2-0.6-0.4-0.8-0.5
										c0,0.1-0.1,0.1-0.1,0.1C431.6,296,431.9,296.1,432.2,296.2z M443.7,300.5c-0.5-1.9-3.3-5.6-6.6-9.7
										C439.7,295.4,442.1,299.4,443.7,300.5z M437.1,290.8c-0.2-0.3-0.4-0.6-0.5-0.9c-0.1,0-0.1,0.1-0.2,0.1
										C436.6,290.3,436.8,290.5,437.1,290.8z"/>
									
										<radialGradient id="SvgjsPath4699_1_" cx="152.059" cy="1102.8032" r="53.1341" gradientTransform="matrix(0.2274 2.032523e-03 2.524497e-03 -0.2274 408.0245 553.5626)" gradientUnits="userSpaceOnUse">
										<stop  offset="0" style="stop-color:#FFFFFF"/>
										<stop  offset="1" style="stop-color:#FFFFFF;stop-opacity:0"/>
									</radialGradient>
									<path id="SvgjsPath4699" class="st27" d="M448,287.2c-0.1,0-0.1,0-0.2,0c0,0.4,0,0.7-0.1,1.1
										C447.8,287.9,447.9,287.6,448,287.2z M447.7,288.3c-1.2,5.1-2.1,9.7-1.7,11.6C447,298.2,447.4,293.5,447.7,288.3z
										 M446,299.9c-0.2,0.4-0.5,0.6-0.8,0.7c-0.3,0-0.6-0.2-0.9-0.5c0,0.5-0.1,0.8-0.4,0.9c-0.2,0.2-0.6,0.1-1-0.1
										c0.2,0.4,0.3,0.8,0.1,1c-0.1,0.3-0.5,0.4-0.9,0.4c0.4,0.3,0.6,0.5,0.6,0.8c0,0.3-0.2,0.6-0.6,0.8c0.5,0.1,0.8,0.2,0.9,0.5
										c0.1,0.3,0,0.6-0.2,1c0.4-0.2,0.8-0.2,1,0c0.2,0.2,0.3,0.5,0.3,1c0.3-0.3,0.6-0.5,0.9-0.5c0.3,0,0.5,0.3,0.7,0.7
										c0.1-0.4,0.3-0.7,0.6-0.8c0.3-0.1,0.6,0,1,0.3c-0.1-0.4-0.1-0.8,0.1-1c0.2-0.2,0.5-0.3,1-0.2c-0.3-0.4-0.4-0.7-0.4-0.9
										c0.1-0.3,0.4-0.5,0.8-0.6c-0.4-0.2-0.7-0.4-0.8-0.7c-0.1-0.3,0.1-0.6,0.4-0.9c-0.5,0-0.8,0-1-0.2c-0.2-0.2-0.2-0.6-0.1-1
										c-0.4,0.3-0.7,0.4-1,0.2C446.3,300.6,446.1,300.3,446,299.9z M447.5,300.5c1.6-1.1,4.2-5,6.9-9.5
										C451,295,448,298.6,447.5,300.5z M454.4,291c0.2-0.3,0.5-0.5,0.7-0.8c-0.1,0-0.1-0.1-0.1-0.1
										C454.8,290.4,454.6,290.7,454.4,291z M448.6,301.7c1.9-0.2,6-2.5,10.5-5.2C454.2,298.5,449.9,300.3,448.6,301.7z
										 M459.1,296.5c0.3-0.1,0.6-0.2,0.9-0.4c0-0.1-0.1-0.1-0.1-0.2C459.7,296.2,459.4,296.4,459.1,296.5z M449,303.3
										c1.8,0.7,6.5,0.6,11.7,0.3C455.4,303.1,450.8,302.7,449,303.3z M460.7,303.6c0.3,0,0.6,0.1,0.9,0.1c0-0.1,0-0.1,0-0.2
										C461.3,303.6,461,303.6,460.7,303.6z M448.5,304.9c1.2,1.5,5.5,3.5,10.2,5.7C454.4,307.7,450.4,305.2,448.5,304.9z
										 M458.8,310.6c0.2,0.2,0.4,0.3,0.7,0.4c0,0,0-0.1,0.1-0.1C459.3,310.8,459,310.7,458.8,310.6z M447.4,306.1
										c0.4,1.9,3.2,5.7,6.4,9.8C451.3,311.3,449,307.2,447.4,306.1z M453.8,315.9c0.1,0.2,0.2,0.4,0.3,0.6c0,0,0.1,0,0.1-0.1
										C454.1,316.3,454,316.1,453.8,315.9z M445.9,306.7c-0.5,1.8,0.2,6.5,1.1,11.7C446.9,313.1,446.7,308.4,445.9,306.7z
										 M447,318.3c0,0.2,0,0.4,0,0.6c0,0,0.1,0,0.1,0C447.1,318.8,447.1,318.5,447,318.3z M444.2,306.4
										c-1.3,1.4-2.8,5.8-4.4,10.9C442.2,312.6,444.2,308.4,444.2,306.4z M439.8,317.3c-0.1,0.2-0.2,0.4-0.3,0.6c0,0,0.1,0,0.1,0
										C439.7,317.7,439.8,317.5,439.8,317.3z M442.9,305.5c-1.8,0.6-5.2,3.9-9,7.6C438.3,310,442,307.2,442.9,305.5z M434,313
										c-0.2,0.1-0.4,0.3-0.5,0.4c0,0,0.1,0.1,0.1,0.1C433.7,313.4,433.8,313.2,434,313z M442.2,304c-1.9-0.3-6.4,1-11.4,2.5
										C436,305.8,440.6,305.1,442.2,304z M430.8,306.6c-0.2,0-0.5,0.1-0.8,0.1c0,0,0,0.1,0,0.1
										C430.3,306.7,430.5,306.6,430.8,306.6z M442.2,302.4c-1.6-1.1-6.1-2.1-11.3-3.1C435.9,301.1,440.3,302.6,442.2,302.4z
										 M430.9,299.3c-0.3-0.1-0.5-0.2-0.8-0.3c0,0.1,0,0.1,0,0.1C430.4,299.2,430.6,299.3,430.9,299.3z M443,300.9
										c-0.8-1.7-4.5-4.7-8.6-8C438,296.9,441.2,300.2,443,300.9z M434.4,293c-0.2-0.2-0.4-0.5-0.7-0.7c0,0-0.1,0.1-0.1,0.1
										C433.9,292.6,434.2,292.8,434.4,293z M444.4,300c0-1.9-1.7-6.3-3.9-11C441.8,294.1,443.2,298.6,444.4,300z M440.5,289
										c-0.1-0.3-0.2-0.7-0.3-1c-0.1,0-0.1,0-0.2,0.1C440.2,288.3,440.3,288.7,440.5,289z"/>
									<path id="SvgjsPath4703" class="st16" d="M451.9,303c0,3.5-2.8,6.3-6.3,6.3c-3.5,0-6.3-2.8-6.3-6.3c0-3.5,2.8-6.3,6.3-6.3
										C449.1,296.7,451.9,299.5,451.9,303z"/>
									<path id="SvgjsPath4704" class="st19" d="M451.9,303c0,3.5-2.8,6.3-6.3,6.3c-3.5,0-6.3-2.8-6.3-6.3c0-3.5,2.8-6.3,6.3-6.3
										C449.1,296.7,451.9,299.5,451.9,303z"/>
									
										<linearGradient id="SvgjsPath4705_1_" gradientUnits="userSpaceOnUse" x1="-27.4896" y1="707.5579" x2="-26.6573" y2="708.5502" gradientTransform="matrix(2.295 0 0 -2.295 499.8005 1938.2117)">
										<stop  offset="0" style="stop-color:#FFFFFF"/>
										<stop  offset="1" style="stop-color:#FFFFFF;stop-opacity:0"/>
									</linearGradient>
									<path id="SvgjsPath4705" class="st28" d="M436.8,310.3c1.2-0.8,2.8-0.5,3.6,0.7c0.8,1.2,0.5,2.8-0.7,3.6
										c-1.2,0.8-2.8,0.5-3.6-0.7C435.3,312.7,435.6,311.1,436.8,310.3L436.8,310.3z"/>
									
										<linearGradient id="SvgjsPath4709_1_" gradientUnits="userSpaceOnUse" x1="-22.2114" y1="714.5002" x2="-22.8774" y2="713.7062" gradientTransform="matrix(2.295 0 0 -2.295 499.8005 1938.2117)">
										<stop  offset="0" style="stop-color:#FFFFFF"/>
										<stop  offset="1" style="stop-color:#FFFFFF;stop-opacity:0"/>
									</linearGradient>
									<path id="SvgjsPath4709" class="st29" d="M450.6,302.1c-0.7,1-2.6,0.9-4.3-0.3c-1.7-1.1-2.5-2.9-1.9-3.9l0,0
										c0.7-1,2.6-0.9,4.3,0.3C450.4,299.4,451.2,301.1,450.6,302.1L450.6,302.1z"/>
									
										<linearGradient id="SvgjsPath4713_1_" gradientUnits="userSpaceOnUse" x1="-19.3938" y1="717.3757" x2="-20.9285" y2="715.5466" gradientTransform="matrix(2.295 0 0 -2.295 499.8005 1938.2117)">
										<stop  offset="0" style="stop-color:#FFFFFF"/>
										<stop  offset="1" style="stop-color:#FFFFFF;stop-opacity:0"/>
									</linearGradient>
									<path id="SvgjsPath4713" class="st30" d="M458.2,299.4c-1.5,2.3-5.4,2.5-8.7,0.3c-3.3-2.2-4.8-5.8-3.2-8.1
										c1.5-2.3,5.4-2.5,8.7-0.3C458.2,293.5,459.7,297.1,458.2,299.4L458.2,299.4z"/>
								</g>
							</g>
						</g>
						<g id="svga-group-eyesfront-right">
							<path id="SvgjsPath4363" class="st2" d="M443.9,242.4c-27.2,0.9-55.6,18.6-55.2,63.3c0.4,40,32.2,60.3,59.5,59.3
								c27.2-0.9,43.2-46.2,47.2-63.1C506.1,256.3,471.1,241.4,443.9,242.4z M452.4,318.2c-12.9,1.7-25.1-0.7-37.9-2.3
								c-3.6-1.6-6.4-3.8-5.7-6.5c0-0.1,0.1-0.1,0.1-0.2c0,0,0,0,0,0c7.6-11.9,16.5-19.4,28.7-21.2c9.2-1.4,21.9-0.2,27.5,0.9
								c4.8,1,10.2,1.9,15.6,5.1c0,2.8-0.2,3.7-0.8,6.6C478.7,303.5,478.2,314.9,452.4,318.2z"/>
							
								<radialGradient id="SvgjsPath4364_1_" cx="-259.9572" cy="843.1146" r="15.1524" fx="-248.0093" fy="842.1532" gradientTransform="matrix(-2.2684 0.3137 0.3066 1.6877 -410.5698 -1043.0337)" gradientUnits="userSpaceOnUse">
								<stop  offset="0" style="stop-color:#D2A186"/>
								<stop  offset="0.7" style="stop-color:#D2A186;stop-opacity:0.3"/>
								<stop  offset="1" style="stop-color:#E1BBA6;stop-opacity:0"/>
							</radialGradient>
							<path id="SvgjsPath4364" class="st31" d="M482.6,292.9c-3.6-18.3-26.5-30-51.2-26.3c-24.7,3.7-41.8,21.6-38.2,39.9
								c3.6,18.3,26.5,30,51.2,26.3C469,329,486.1,311.2,482.6,292.9z M480,300.6c-1.3,3-1.7,14.4-27.5,17.7
								c-12.9,1.7-25.1-0.7-37.9-2.3c-3.6-1.6-6.4-3.8-5.7-6.5c0-0.1,0.1-0.1,0.1-0.2c0,0,0,0,0,0c7.6-11.9,16.5-19.4,28.7-21.2
								c9.2-1.4,21.9-0.2,27.5,0.9c4.8,1,9.9,2,15.6,5.1C480.8,296.8,480.6,297.6,480,300.6z"/>
							
								<radialGradient id="SvgjsPath4369_1_" cx="-379.0133" cy="707.3566" r="23.3294" gradientTransform="matrix(-1.6485 -0.1377 0.1843 -1.4098 -304.9552 1275.6917)" gradientUnits="userSpaceOnUse">
								<stop  offset="0.95" style="stop-color:#000000;stop-opacity:0"/>
								<stop  offset="1" style="stop-color:#000000;stop-opacity:0.2"/>
							</radialGradient>
							<path id="SvgjsPath4369" class="st32" d="M480,300.6c0.7-2.9,0.9-3.8,0.8-6.6c-5.6-3.1-10.8-4.1-15.6-5.1
								c-5.7-1.1-18.3-2.3-27.5-0.9c-12.2,1.8-21.2,9.3-28.7,21.2c0,0,0,0,0,0c0,0.1-0.1,0.1-0.1,0.2c-0.7,2.7,2.2,4.9,5.7,6.5
								c12.7,1.6,25,4,37.9,2.3C478.2,314.9,478.7,303.5,480,300.6z"/>
							<path id="SvgjsPath4373" class="st13" d="M438.7,281c-8.8,1.4-17.4,5.5-25.3,10.5c-1.7,1.1-3.6,2.3-6.7,3.9
								c2.2-0.5,4.3-1.6,6.2-2.7c-2,1.9-3.8,4.1-5.3,6.2c6.7-8.4,19.5-14.8,30.3-16.9c10.4-2.1,29.3-0.7,43.4,5.4
								C468.4,280.2,449.6,279.2,438.7,281z"/>
							<path id="SvgjsPath4374" d="M465.5,285.8c4.5,1.1,13.7,4.7,16,7.8c0.5,3-2.9,0.1-3.7-0.3c-10-5.5-27.2-6.8-40.1-4.9
								c-12.2,1.8-21.2,9.1-28.8,20.7C406,313.3,415.5,273.7,465.5,285.8z M452.4,317.8c-12.9,1.6-25.2-0.7-37.9-2.2
								c-3-0.4,21.4,5.9,39,4.3c24.8-2.3,29-14.5,27.1-20C478.4,300.4,481.7,314.2,452.4,317.8z"/>
						</g>
					</g>
				</g>
				<g id="svga-group-facehighlight-single">
					
						<radialGradient id="SvgjsPath2906_1_" cx="-47.1016" cy="622.3581" r="36.4567" gradientTransform="matrix(2.55 0 0 -2.55 464.9482 1948.0748)" gradientUnits="userSpaceOnUse">
						<stop  offset="0" style="stop-color:#F0D7C9;stop-opacity:0.5"/>
						<stop  offset="0.9" style="stop-color:#E1BBA6;stop-opacity:0"/>
					</radialGradient>
					<path id="SvgjsPath2906" class="st33" d="M454.2,361c0.1,60.3-48.8,109.4-109.2,109.4c-60.4,0.1-109.4-48.7-109.5-109.1
						c-0.1-60.3,48.8-109.5,109.2-109.6C405.1,251.6,454.1,300.6,454.2,361z"/>
					
						<radialGradient id="SvgjsPath2910_1_" cx="-47.1011" cy="685.1239" r="32.8993" gradientTransform="matrix(2.55 0 0 -2.55 464.9482 1948.0748)" gradientUnits="userSpaceOnUse">
						<stop  offset="0" style="stop-color:#F0D7C9;stop-opacity:0.5"/>
						<stop  offset="0.9" style="stop-color:#E1BBA6;stop-opacity:0"/>
					</radialGradient>
					<path id="SvgjsPath2910" class="st34" d="M444.9,201c0,55.2-44.8,100-100,100c-55.2,0-100-44.8-100-100s44.8-100,100-100
						C400.1,101,444.9,145.8,444.9,201z"/>
				</g>
				<g id="svga-group-eyebrows-left-move" transform="matrix(1,0,0,1,0,2)">
					
						<g id="svga-group-eyebrows-left-rotate" transform="matrix(0.991444860918188,0.130526195680847,-0.130526195680847,0.991444860918188,9.895606073885048,-8.877297821802173)">
						
							<g id="svga-group-eyebrows-left" transform="matrix(0.8999997000000001,0,0,0.8999997000000001,7.320009829226294,7.017069696165464)">
							<path id="SvgjsPath3637" class="st35" d="M264.4,246.5c19.9-25,54.3-20.9,82.4-16.8c7.2,1,14.5,1.8,21.5,3.6
								c5,1.3,9,7,4.9,11.6c-1.9,2.2-6,1.8-8.6,1.7C331,245.9,292.9,226.5,264.4,246.5z"/>
						</g>
					</g>
				</g>
				<g id="svga-group-eyebrows-right-move" transform="matrix(1,0,0,1,0,2)">
					
						<g id="svga-group-eyebrows-right-rotate" transform="matrix(0.9914448613738104,-0.13052619222005168,0.13052619222005168,0.9914448613738104,-8.184578085965057,17.22794059236793)">
						
							<g id="svga-group-eyebrows-right" transform="matrix(0.8999997000000001,0,0,0.8999997000000001,12.683687876999272,7.03277332603988)">
							<path id="SvgjsPath3638" class="st35" d="M475.2,316.5c-5.8-3.9-11.9-6.6-18.8-7.7c-25.3-4.1-73.6,12.8-86.3,9.2
								c-7.8-2.2-6.2-10-2.8-11.9c2.1-1.2,2.6-1.1,21.1-4.3C419.9,296.4,455,292.1,475.2,316.5z"/>
						</g>
					</g>
				</g>
				<g id="svga-group-nose-single-move" transform="matrix(1,0,0,1,0,0)">
					
						<g id="svga-group-nose-single" transform="matrix(0.8999997000000001,0,0,0.8999997000000001,10.035089461867514,11.45014078037299)">
						<path id="SvgjsPath3156" class="st4" d="M363.7,320.7c0,0-3.7,29.7-5.4,35.4c-3.7,12.7-16.5,30.5-14,38.5
							c5,16.1,20.1,12,28.1,11.9c7.4-0.1,21.5,4.1,24.4-6.3c0.9-3.4-1.2-11.9-1.2-11.9s-7.1,8.3-23.7,7.4
							c-4.7-0.3-12.5-5.6-12.5-13.1c-0.1-10.2,4.8-18.8,5.9-28.9C366.1,346,363.7,320.7,363.7,320.7z"/>
						<path id="SvgjsPath3157" class="st13" d="M386,401.9c2.9,0,3.6,0.9,3.6,1.9c0,1.1-0.9,2.7-3.6,1.9c-3-0.9-8.3-0.5-8.3-0.5
							S383.1,401.9,386,401.9z M358.6,401.9c-2.9,0-3.6,0.9-3.6,2c0,1.1,0.9,2.6,3.6,1.9c3.1-0.8,8.3-0.5,8.3-0.5
							S361.4,401.9,358.6,401.9z M395.6,388.3c0,0,4,5.2,3.1,10.6c-0.8,5.3-8.8,7.6-8.8,7.6s5.6-4,6.2-9
							C396.5,395.2,395.6,388.3,395.6,388.3z M346.6,383c0,0-2.9,7.2-2.1,11.6c1.5,7.9,9.9,11.1,9.9,11.1s-5.2-5.4-7.1-10.2
							C345.3,390.2,346.6,383,346.6,383z"/>
						<path id="SvgjsPath3158" class="st3" d="M385.8,392.1c2.8-2.4,3.1-3.7,2.5-4.6c-0.6-0.9-2.2-1.5-4.6,1.4
							c-2.6,3.1-8.2,5.5-8.2,5.5S383,394.5,385.8,392.1z"/>
					</g>
				</g>
				<g id="svga-group-beardwrap" transform="matrix(1,0,0,1,0,0)">
					<g id="svga-group-beard-single-move" transform="matrix(1,0,0,1,0,0)">
						<g id="svga-group-beard-single" transform="matrix(1,0,0,1,0,0)">
							<path id="SvgjsPath3042" class="st35" d="M344.8,105.3L344.8,105.3L344.8,105.3L344.8,105.3z"/>
						</g>
					</g>
				</g>
				<g id="svga-group-mustache-single-move" transform="matrix(1,0,0,1,0,0)">
					<g id="svga-group-mustache-single" transform="matrix(1,0,0,1,0,0)">
						<path id="SvgjsPath3040" class="st35" d="M344.8,105.3L344.8,105.3L344.8,105.3L344.8,105.3z"/>
					</g>
				</g>
				<g id="svga-group-hair-front" transform="matrix(1,0,0,1,0,0)">
					<path id="SvgjsPath3741" class="st1" d="M484,313.1c-11.6-30.5-6.4-53.5-8.6-99.3c-3.4-70.5-20-61.8-58-64.6
						c-58.8-4.3-79.2-31.5-123.1-31.5c-23.7,0-51.3,10.8-72.5,29.3c-17,116,7,106.4-18,165c-15.9-16.7-17.9-42.3-29.7-76
						c-9.4-27.9-7.1-29.4-17.4-42.8c6.6,1.2,7.3,1.1,10.2,1.1c-5.3-11.5-11.9-31.9-14.5-40.7c6.2-3,12.9-10.4,17.3-15.8
						c-2.5-5.7-4.4-12.1-5.5-17.7c0.2-0.1,1.2-0.4,1.2-0.4l0,0c15.2-6.4,18.2-42.5,28.8-51.7c5.2-4.8,10.2-6.8,14.8-9.2
						c0.5-5.1,0.8-6.1,1.5-9.7c25.1-6.7,32.7-3.2,68.1-13.1c12.2-3.4,20.6-5.7,46.2-4.7c9.4,4.7,42.8,28,68,4.3
						c19.4,12.1,36.2,13.6,60.4,27.3c40.5,23.7,46,40.4,43.6,78.9c28,37.3,21.8,81.5,9.5,126C498.6,295.4,491.3,304.4,484,313.1z"/>
					<path id="SvgjsPath3742" class="st36" d="M483.6,275.7c-2.7-21.3,8-40,10.7-58.7c-2.7,5.3-8,8-8,13.3c0-18.7,8-34.7,5.3-53.4
						c-2.7,5.3-5.3,8-10.7,10.7c8-18.7,0-40-13.3-56c2.7,8,5.3,13.3,5.3,21.3c-16-24-53.4-26.7-80-40c5.3,8,16,13.3,24,18.7
						c-37.3-13.3-72-29.3-106.7-45.3c5.9,5.9,10.3,16.1,17.6,20c3,0.4,2.6,1.4,0,0c-32-4.6-65.7-8.1-94.9-22.7c0,10.7,8,18.7,16,24
						c-8,0-16-8-21.3-5.3c-8,5.3,8,10.7,5.3,16c-8,5.3-16-2.7-24-2.7c5.3,8,0,21.3,5.3,29.3c-5.3-2.7-10.7-8-10.7-5.3
						c-2.7,10.7-8,13.3-8,21.3c0,13.3,8,26.7,8,40c0-4.3-5.2-3.4-7.2-5.7c13.4,37.3,12.8,76.5,7,116c0.2,0.2,0.4,0.5,0.6,0.7
						c25-58.6,1-49,18-165c21.2-18.5,48.8-29.3,72.5-29.3c43.8,0,64.3,27.2,123.1,31.5c38.1,2.8,54.6-5.9,58,64.6
						c2.2,45.8-2.9,68.7,8.6,99.3c0,0,0,0,0,0c1.7-19.8,7.5-37.9,7.5-56C488.9,262.4,486.2,267.7,483.6,275.7z"/>
					<path id="SvgjsPath3743" class="st37" d="M502.9,247.7c-0.8,1.8-6,2.3-6,4c0-8,9.4-14,7.8-27.4c0,1.1-8.4,7.9-9.3,8.9
						c-0.5,2.7,11.4-28.5,11.4-38.8c-3.9,6.6-7.3,6.6-7.3,11.9c0-10.7,0-26.3,0-37c0,5.3-5.3,13.2-5.3,18.5
						c2.5-19.9-9.1-42.9-11.4-62.7c-1.4,4.8-3.9,10.4-1.9,14.4c-8-10.7-5.3-29.3-18.7-37.3c-2.7,5.3-2.7,10.7-5.3,16
						c-8-10.7-18.7-18.7-24-29.3c0,5.3,0,8,0,13.3c-13.3-10.7-32-16-40-32c0,5.3,0,13.3,0,18.7c-10.7-2.7-28-12.3-33.3-20.3
						c0,8,9.3,20.3,9.3,28.3c-21.3-10.7-37.3-26.7-58.7-37.3c0,5.3,5.3,10.7,2.7,16c-10.7-5.3-31.4-5.3-36.7-16c0,8,8.3,16,8.3,24
						c-24-2.7-29.4-10.2-51.3-20.3c-2.7,5.3-5.6,12.3-8.3,17.6c-5.3-5.3-8-10.7-16-10.7c0,8,8,18.7,2.7,26.7
						c-2.7,2.7-13.3-8-13.3-5.3c-5.3,10.7,0,26.7-5.3,37.3c0,2.7-8-5.3-13.3-2.7c10.3,15.5,3.2,33.5,10,49.1c0.3,0.5,0.5,1,0.7,1.6
						c-0.3-0.5-0.5-1-0.7-1.6c-3.4-6.5-12.8-7-15.3-14.4c0,19.5,11.1,36.7,15.1,55.8c1.3,0.8,2,2.3,0.9,5.5
						c-0.2-1.9-0.6-3.7-0.9-5.5c-2-1.2-5.5-0.9-7.1-2.5c12.6,25.2,16.5,68.5,21.1,97c9.5-41,4.6-83.9-7-116
						c-0.5-0.5-0.8-1.3-0.8-2.3c0.3,0.8,0.5,1.6,0.8,2.3c2,2.3,7.2,1.4,7.2,5.7c0-13.3-8-26.7-8-40c0-8,5.3-10.7,8-21.3
						c0-2.7,5.3,2.7,10.7,5.3c-5.3-8,0-21.3-5.3-29.3c8,0,16,8,24,2.7c2.7-5.3-13.3-10.7-5.3-16c5.3-2.7,13.3,5.3,21.3,5.3
						c-8-5.3-16-13.3-16-24c29.2,14.6,62.9,18.1,94.9,22.7c-7.2-3.9-11.7-14.1-17.6-20c34.7,16,69.4,32,106.7,45.3
						c-8-5.3-18.7-10.7-24-18.7c26.7,13.3,64,16,80,40c0-8-2.7-13.3-5.3-21.3c13.3,16,21.3,37.3,13.3,56c5.3-2.7,8-5.3,10.7-10.7
						c2.7,18.7-5.3,34.7-5.3,53.4c0-5.3,5.3-8,8-13.3c-2.7,18.7-13.3,37.3-10.7,58.7c2.7-8,5.3-13.3,8-18.7c0,18.1-5.8,36.3-7.5,56
						c2.2-2.6,4.4-5.3,6.6-8.4C490.3,284.9,498.2,268.6,502.9,247.7z"/>
					<path id="SvgjsPath3744" class="st1" d="M326.5,105.6c-3,0.2-6.6,0.7-13.2-0.3c-17.9-2.5-76.3-4.8-79.5-23.1
						c2.8,8.9,19.8,11.5,32.6,13.9c0,0,9,1.7,23.3,3.3C316.3,102.6,310.6,104.7,326.5,105.6z M387.2,120.3
						c-63.7-27.6-59.2-24.6-74.1-34c19.6,16.4,26.2,16.5,60.3,32.1c15.8,7.1,18.9,6.8,40.4,12C398.8,124.3,397,124.4,387.2,120.3z
						 M394.5,112.3c26.4,21.7,58.7,16.3,79.4,40C457.3,126.1,420.9,128.7,394.5,112.3z M237.9,103.2c-7.1-2.1-10.7-1.1-14.1,1.1
						c11.3-5.3,23.1,7.8,36.7,4C254.2,109,237.9,103.7,237.9,103.2z M230.3,120.8c-6.2-2-13.9-5.3-19.1-5.1
						c-2.7,0.1-3.4,1.3-3.4,1.3c2.6-3,15,2.9,22.4,4.3c2,0.4,3.6,0.3,3.6,0.3S232.2,121.5,230.3,120.8z M199.9,152.1
						c1.8-5,3.9-10,3.4-14.6c-0.3-1.7-0.8-2.5-0.8-2.6c1.2,5.3-0.8,8.5-4.5,16.4c-8,17.2,2.5,30.6,6.5,49
						C203.1,179.3,193.2,170,199.9,152.1z M489.9,179.6c0.9,5.8,0.6,9.7-0.4,18.9c0,0-1.9,15.4-5.6,30.5
						C489.4,216.1,494.1,194,489.9,179.6z M493.9,221c-9,25-10.5,34.3-12,54C491.8,229,487,252.1,493.9,221z"/>
					<path id="SvgjsPath3745" class="st38" d="M384.5,52.3c-16.3,2.6-33.4,4.6-64-14C350,51.6,364.4,52.9,384.5,52.3z M420.6,57.5
						c-16.2-5.9-17.3-12.7-29.4-16.6c11.1,5,11,11.5,25.5,18c7,3.3,31.5,10.1,46.5,19.8C450,67.1,441,65.1,420.6,57.5z M239.8,51.6
						c30.9,0.6,35.9-7.3,71.4-11.3C279.2,39.9,275.8,47.5,239.8,51.6z M320.5,52.3c12.5,1.5,30.4,12.7,36,25.3
						C352.4,63.4,334.7,52.3,320.5,52.3z M389.8,56.3c12.4,6.6,16.8,20.5,32,23.3C407,74.7,404,61.8,389.8,56.3z M368.5,58.9
						c3.2,5.4,7.8,11,20,18.7C374.3,65.9,371.8,63.5,368.5,58.9z M430.5,71.6c13.6,1.7,27.9,15.1,29.3,30
						C460.5,86.9,447.3,71.9,430.5,71.6z M476.8,94.3c-6.2-7.9-11.6-9.7-14.2-10.7c3.8,2,8,4.6,13,11.7c0,0,9.2,12.2,13,25.6
						C485.9,104.7,476.8,94.3,476.8,94.3z M223.1,56.3c0.5-1,14.2,5,15.3,5.4c3.3,1.3,19.7,7.9,25.4,8.6
						C261.1,69.5,223.3,53.2,223.1,56.3z M200.4,72.9c1.8,2.4,3.9,6,5.4,8.7c0,0,0.8,1.4,1.5,2.8c0.7,1.4,1.4,2.9,1.4,2.9
						c1.8,4.1,2.7,6.6,2.8,9.7C212.1,89,205.3,78,200.4,72.9z M192.4,80.9c-6.7,16.4-6.6,25.9,0,42.7
						C188.3,106.8,187.4,98.8,192.4,80.9z"/>
					<path id="SvgjsPath3746" d="M497.5,141.6c0.6-9.3,0.9-15.2,0.1-24.4c-3-27-19.3-40.4-44.1-54.9c-24.4-13.9-41.4-15.3-60.8-27.7
						c-24.9,24.1-58.5,0.5-67.7-4.1c-44.8-1.9-37.9,6.7-87.4,12.8c-18.3,2.1-25.8,4.6-25.8,4.6c-0.7,0.2-1.4,0.3-2,0.5
						c-0.5,2.7-1,4.3-1.6,9.8c-4,2.1-9.3,4.2-14.5,9.1c-10.8,9.4-13.9,45.9-28.9,51.7v0c-0.3,0.1-1.1,0.4-1.5,0.5
						c1.1,5.6,3.2,12.7,5.5,18.1c-4.3,5.2-11.1,12.8-17.3,15.5c1.5,5.3,8.8,28.7,14.2,40.4c-2.9,0-5.3-0.5-10.9-1.5
						c11.7,14.9,8.8,15.1,18.6,44.2c12,34.2,13.9,60.3,30.7,77.1c15-28.4,13.7-41.6,13.8-51.8c0.3-14-6.5-49.2,5.2-114.2
						c24.7-21.6,59.7-34,92.9-26.5c34.7,7.8,52.1,25.5,101.4,29c38.4,2.8,53.9-5.9,57.3,63.8c2.2,46.3-3.1,69.4,9.1,100.8
						c7.1-8.6,15.1-17.1,23.3-46.6C519,224.5,525.7,179.5,497.5,141.6z M507.6,245.6c-9.3,44.3-14.6,52.3-24.2,66.6
						c-7.7-23.7-5.6-46.6-4.8-70.9c4-104.7-22.5-92.9-61-95.8c-47.2-3.2-65.7-21.1-100.7-28.1c-31.9-6.5-67.4,2-97,29.8
						c-16.1,72.4,1.5,111-12.8,147.7c-3.1,7.9-1.1,9.9-3.4,15.6c-12.4-18.6-15.7-44.9-19.8-58.1c-12.8-32.5-12.4-43.1-26.2-58.6
						c3.4,0.7,7.8,1.2,11.2,0.6c0,0,0,0,0-0.1c-0.9-2.7-12.1-33.3-15.3-40.9c6.4-3.1,12.6-10,16.9-15.6c-3.4-10.9,0.8,5.1-5.6-17.8
						c19.6-5.9,17.6-43,37.6-56.6c2.7-1.8,5-3.2,7.6-4.9c0.6-5,0.2-2.1,1.4-9.7c23.5-4.8,33.1-0.1,67.2-10.8
						c25.8-6.3,44.4-6.1,47.1-5.8c16.5,10.3,25.8,16.1,45.1,14.8c8.9-0.7,15.9-5,22.1-11.3c10.7,8,22.6,12.9,37.3,19.6
						c59.3,27.2,64.6,49.2,64.6,85.8c3.7,5.3,7.8,13.6,9.9,19.2C517.1,190.7,513.2,219.8,507.6,245.6z"/>
				</g>
				<g id="svga-group-glasses-single-move" transform="matrix(1,0,0,1,0,0)">
					<g id="svga-group-glasses-single" transform="matrix(1,0,0,1,0,0)">
						<path id="SvgjsPath3747" class="st39" d="M344.8,105.3L344.8,105.3L344.8,105.3L344.8,105.3z"/>
					</g>
				</g>
			</g>
		</g>
	</g>
	<rect id="SvgjsRect1057" x="60" y="504" class="st40" width="480" height="36"/>
</g>
</svg>
